<svg xmlns="http://www.w3.org/2000/svg" viewBox="0 0 1600 300" width="100%" height="300">
    <defs>
        <linearGradient id="sliceGradient" x1="0%" y1="0%" x2="100%" y2="0%">
            <stop offset="20%" style="stop-color:#FFD700" />
            <stop offset="40%" style="stop-color:#00E5FF" />
            <stop offset="60%" style="stop-color:#7934C5" />
            <stop offset="80%" style="stop-color:#FF00FF" />
        </linearGradient>
        <pattern id="slicePattern" x="0" y="0" width="60" height="60" patternUnits="userSpaceOnUse">
            <path d="M0,30 L60,30 M30,0 L30,60 M0,0 L60,60 M60,0 L0,60" stroke="#000000" stroke-width="0.6" opacity="0.05" />
            <path d="M30,0 L30,60 M0,30 L60,30" stroke="#000000" stroke-width="0.4" opacity="0.03" />
        </pattern>
        <filter id="precisionGlow" x="-50%" y="-50%" width="200%" height="200%">
            <feGaussianBlur in="SourceGraphic" stdDeviation="2" result="blur" />
            <feColorMatrix in="blur" type="matrix" values="1 0 0 0 0  0 1 0 0 0  0 0 1 0 0  0 0 0 12 -3" result="glow" />
            <feMerge>
                <feMergeNode in="glow" />
                <feMergeNode in="SourceGraphic" />
            </feMerge>
        </filter>
        <linearGradient id="geometricAccentGradient" x1="0%" y1="0%" x2="100%" y2="100%">
            <stop offset="0%" style="stop-color:#4CAF50;stop-opacity:0.2" />
            <stop offset="100%" style="stop-color:#0073E6;stop-opacity:0.1" />
        </linearGradient>
    </defs>
    <rect width="1600" height="300" fill="#FFFFFF" />
    <rect width="1600" height="300" fill="url(#slicePattern)" />
    <g opacity="0.6">
        <path d="M150,0 L550,300" stroke="url(#sliceGradient)" stroke-width="3" stroke-dasharray="12 12" fill="none" />
        <path d="M1050,0 L1450,300" stroke="url(#sliceGradient)" stroke-width="3" stroke-dasharray="12 12" fill="none" />
        <path d="M80,0 L400,300 L240,300 Z" fill="url(#geometricAccentGradient)" opacity="0.3" />
        <path d="M1520,0 L1200,300 L1360,300 Z" fill="url(#geometricAccentGradient)" opacity="0.3" />
        <path d="M80,0 L400,300 L240,300 Z" fill="none" stroke="url(#sliceGradient)" stroke-width="2" stroke-dasharray="6 6" opacity="0.5" />
        <path d="M1520,0 L1200,300 L1360,300 Z" fill="none" stroke="url(#sliceGradient)" stroke-width="2" stroke-dasharray="6 6" opacity="0.5" />
    </g>
    <g transform="translate(800, 150)" filter="url(#precisionGlow)">
        <text font-family="Roboto, sans-serif" font-size="180" font-weight="bold" fill="url(#sliceGradient)" text-anchor="middle" dominant-baseline="middle" letter-spacing="0.08em">
            SPLITME-AI
        </text>
        <g opacity="0.6">
            <line x1="-400" y1="45" x2="400" y2="45" stroke="url(#sliceGradient)" stroke-width="1.5" stroke-dasharray="8 8" />
            <line x1="-400" y1="-45" x2="400" y2="-45" stroke="url(#sliceGradient)" stroke-width="1.5" stroke-dasharray="8 8" />
            <line x1="-400" y1="-45" x2="400" y2="45" stroke="url(#sliceGradient)" stroke-width="1" stroke-dasharray="5 5" opacity="0.4" />
            <line x1="-400" y1="45" x2="400" y2="-45" stroke="url(#sliceGradient)" stroke-width="1" stroke-dasharray="5 5" opacity="0.4" />
        </g>
    </g>
    <g opacity="0.3">
        <path d="M0,150 L1600,150" stroke="#000000" stroke-width="0.8" stroke-dasharray="5 5" />
        <path d="M800,0 L800,300" stroke="#000000" stroke-width="0.8" stroke-dasharray="5 5" />
        <path d="M0,0 L1600,300" stroke="#000000" stroke-width="0.5" stroke-dasharray="4 4" opacity="0.2" />
        <path d="M1600,0 L0,300" stroke="#000000" stroke-width="0.5" stroke-dasharray="4 4" opacity="0.2" />
    </g>
</svg>
